<?xml version="1.0" encoding="UTF-8"?>
<svg version="1.1" xmlns="http://www.w3.org/2000/svg" width="1024" height="1024">
<path d="M0 0 C31.58057627 -0.27882878 62.74229432 -0.12341074 94 5 C94.98049316 5.15807129 95.96098633 5.31614258 96.97119141 5.47900391 C162.29436674 16.28161559 225.48718084 46.03940991 275 90 C276.52003026 91.33424878 278.04072589 92.66774051 279.5625 94 C280.16191406 94.52980469 280.76132812 95.05960937 281.37890625 95.60546875 C282.87595092 96.8932879 284.4359812 98.10690218 286 99.3125 C286.66 99.869375 287.32 100.42625 288 101 C288 101.66 288 102.32 288 103 C288.56074219 103.23460937 289.12148438 103.46921875 289.69921875 103.7109375 C296.53367257 107.5400882 301.99277907 114.78300256 307.046875 120.7109375 C308.55875351 122.48285912 310.09484841 124.23413386 311.640625 125.9765625 C319.76736309 135.18767997 326.98429819 144.92418532 334 155 C334.44585449 155.63518555 334.89170898 156.27037109 335.35107422 156.92480469 C342.98325511 167.84636457 349.53270316 179.36073959 356 191 C356.59965576 192.07531982 356.59965576 192.07531982 357.21142578 193.17236328 C363 203.58565787 363 203.58565787 363 206 C363.99 206.33 364.98 206.66 366 207 C366.13728516 208.2375 366.13728516 208.2375 366.27734375 209.5 C367.14378108 213.69636673 368.74038189 217.14515644 370.5625 221 C391.49664696 266.97089461 399.64821477 316.14983278 399.26428223 366.32208252 C399.24488813 369.36438677 399.24110355 372.40663294 399.2375679 375.44899082 C399.23244718 379.09232384 399.21795127 382.73560225 399.203125 386.37890625 C399.20124428 387.06765902 399.19936356 387.75641178 399.19742584 388.46603584 C399.19060109 390.39087599 399.1760778 392.31568429 399.16113281 394.24047852 C399.15430481 395.33231949 399.14747681 396.42416046 399.14044189 397.54908752 C399 400 399 400 398 401 C397.62830705 403.13851777 397.3126909 405.2868091 397.01953125 407.4375 C396.82715777 408.80861665 396.63400897 410.17962468 396.44018555 411.55053711 C396.33846039 412.27578583 396.23673523 413.00103455 396.13192749 413.7482605 C388.41263659 468.16384079 368.87953161 521.91424817 337 567 C336.43152344 567.82886719 335.86304688 568.65773438 335.27734375 569.51171875 C325.85068097 583.19004264 315.47802884 595.92341263 304.4375 608.31640625 C302.91935242 610.04206688 302.91935242 610.04206688 301.4375 612.21484375 C300.7259375 613.09849609 300.7259375 613.09849609 300 614 C299.34 614 298.68 614 298 614 C297.77570312 614.55042969 297.55140625 615.10085938 297.3203125 615.66796875 C292.81656294 623.62281634 283.91205384 630.12174899 277 636 C275.56333984 637.27037109 275.56333984 637.27037109 274.09765625 638.56640625 C229.02520454 678.23638438 174.11007512 706.4269809 115.6875 720.125 C114.48536865 720.40819092 113.2832373 720.69138184 112.04467773 720.9831543 C105.42397843 722.46099312 99.02232664 723.38444875 92.24145508 723.68701172 C91.5017749 723.79029785 90.76209473 723.89358398 90 724 C89.67 724.66 89.34 725.32 89 726 C86.49419602 726.28696929 84.07644381 726.46732761 81.5625 726.5625 C76.63076626 726.59767285 76.63076626 726.59767285 72 728 C69.69753314 728.09729178 67.39216755 728.12797256 65.08764648 728.12939453 C64.37695007 728.13114685 63.66625366 728.13289917 62.934021 728.13470459 C60.57968724 728.1391139 58.2254283 728.13618866 55.87109375 728.1328125 C54.23966965 728.13348573 52.60824565 728.13445591 50.9768219 728.13571167 C47.55623419 728.13718733 44.13567257 728.13503802 40.71508789 728.13037109 C36.32089128 728.12466937 31.92675568 728.12795644 27.5325613 728.13394356 C24.16379838 728.13754887 20.79505004 728.1364108 17.4262867 728.13381577 C15.80549169 728.13314665 14.18469538 728.1339744 12.5639019 728.13629532 C10.30355166 728.13882185 8.04330172 728.13498149 5.78295898 728.12939453 C3.85008278 728.12820114 3.85008278 728.12820114 1.87815857 728.12698364 C-1 728 -1 728 -2 727 C-3.77709251 726.71236711 -5.56340479 726.48148195 -7.3515625 726.2734375 C-61.30136436 719.64116704 -115.80045282 703.21615887 -161.04077148 672.30639648 C-163.94176154 670.37204162 -166.95506126 668.69813891 -170 667 C-171.66666667 666 -173.33333333 665 -175 664 C-175.66 663.67 -176.32 663.34 -177 663 C-177.54914063 662.4328125 -178.09828125 661.865625 -178.6640625 661.28125 C-181.6725348 658.34321017 -184.98238156 655.97380115 -188.375 653.5 C-195.69610182 648.08492938 -202.65993312 642.36092804 -209.48486328 636.3359375 C-210.81458761 635.16348318 -212.15454039 634.00265056 -213.49609375 632.84375 C-225.63604985 622.1982573 -237.04608247 610.71246444 -247 598 C-248.55922383 596.16387952 -250.12192725 594.33071006 -251.6875 592.5 C-266.59642314 574.56775034 -279.02057393 555.18517798 -290.3125 534.8125 C-290.7871167 533.95664307 -291.2617334 533.10078613 -291.75073242 532.21899414 C-292.17974854 531.43129639 -292.60876465 530.64359863 -293.05078125 529.83203125 C-293.42887939 529.13827393 -293.80697754 528.4445166 -294.1965332 527.72973633 C-295 526 -295 526 -295 524 C-295.66 523.67 -296.32 523.34 -297 523 C-297.82421875 521.27734375 -297.82421875 521.27734375 -298.6875 518.9375 C-300.56691844 514.05810421 -302.5571121 509.23935112 -304.625 504.4375 C-304.92623779 503.72263428 -305.22747559 503.00776855 -305.5378418 502.27124023 C-306.96800031 498.45092321 -306.96800031 498.45092321 -310 496 C-310.23687172 494.3589698 -310.46640097 492.71655923 -310.65966797 491.06982422 C-311.28751578 487.25139254 -312.75784767 483.69336532 -314.0625 480.0625 C-317.32862278 470.61685218 -319.93592848 461.05911758 -322.375 451.375 C-322.63713791 450.35226486 -322.63713791 450.35226486 -322.90457153 449.30886841 C-324.80144367 441.87830608 -326.38739591 434.65458465 -326.71337891 426.96337891 C-326.80796387 426.31546387 -326.90254883 425.66754883 -327 425 C-327.66 424.67 -328.32 424.34 -329 424 C-329.41064453 422.19335938 -329.41064453 422.19335938 -329.6328125 419.84375 C-329.71660156 418.98523438 -329.80039062 418.12671875 -329.88671875 417.2421875 C-330.00466797 415.88480469 -330.00466797 415.88480469 -330.125 414.5 C-330.21136719 413.62601563 -330.29773438 412.75203125 -330.38671875 411.8515625 C-330.91395857 406.21093335 -331.08058835 400.66420951 -331 395 C-331.66 394.67 -332.32 394.34 -333 394 C-333.41275445 345.85060642 -333.41275445 345.85060642 -331.26025391 324.63671875 C-331.02553657 322.25871943 -330.83706028 319.88338532 -330.66796875 317.5 C-329.08102046 297.48733282 -323.96661399 276.88296107 -317.77832031 257.83642578 C-316.64449302 254.33929181 -316 251.72079082 -316 248 C-315.34 248 -314.68 248 -314 248 C-313.84144531 247.34878174 -313.68289063 246.69756348 -313.51953125 246.02661133 C-311.61923566 238.61637716 -309.02050078 231.708181 -306 224.6875 C-305.516521 223.55812012 -305.03304199 222.42874023 -304.53491211 221.26513672 C-289.53705612 186.64498462 -269.75320206 154.49071287 -244.60571289 126.28857422 C-241.87264823 123.55706473 -241.87264823 123.55706473 -241 120 C-240.401875 119.73960937 -239.80375 119.47921875 -239.1875 119.2109375 C-236.83622528 117.90933899 -235.6824774 116.70180804 -234 114.625 C-230.23677627 110.14536388 -226.12465488 106.08936849 -221.91210938 102.03759766 C-220.57192804 100.72771978 -219.28128389 99.36754439 -218 98 C-218 97.34 -218 96.68 -218 96 C-217.278125 95.7628125 -216.55625 95.525625 -215.8125 95.28125 C-212.54851816 93.79432494 -210.58034349 91.98594067 -208 89.5 C-202.00573326 83.87687004 -195.5976051 78.89055652 -189 74 C-187.98824707 73.24348145 -187.98824707 73.24348145 -186.95605469 72.47167969 C-177.75054056 65.60619639 -168.4242787 59.19304089 -158.4855957 53.42602539 C-156.62687159 52.33384551 -154.80844174 51.17356326 -153 50 C-153 49.34 -153 48.68 -153 48 C-152.29641357 47.8956665 -151.59282715 47.79133301 -150.86791992 47.68383789 C-147.600877 46.90483157 -145.07406692 45.6422368 -142.11328125 44.05859375 C-141.01048828 43.47529297 -139.90769531 42.89199219 -138.77148438 42.29101562 C-137.63001953 41.67935547 -136.48855469 41.06769531 -135.3125 40.4375 C-133.03969387 39.22423569 -130.76504683 38.01441153 -128.48828125 36.80859375 C-127.48321533 36.27032959 -126.47814941 35.73206543 -125.44262695 35.17749023 C-123 34 -123 34 -121 34 C-120.67 33.34 -120.34 32.68 -120 32 C-118.24121094 31.26708984 -118.24121094 31.26708984 -115.984375 30.5859375 C-111.32253888 29.11736699 -106.79459943 27.41981647 -102.25 25.625 C-100.68238504 25.01017854 -99.11467591 24.39559713 -97.546875 23.78125 C-96.78181641 23.48089844 -96.01675781 23.18054688 -95.22851562 22.87109375 C-90.96402594 21.2041679 -86.6844596 19.57665 -82.40625 17.9453125 C-80.03851967 17.05642454 -80.03851967 17.05642454 -78 16 C-76.60922693 15.70427773 -75.2120639 15.43834311 -73.8125 15.1875 C-67.88928791 14.05473973 -62.1205991 12.4363903 -56.3203125 10.8046875 C-53 10 -53 10 -49 10 C-48.67 9.34 -48.34 8.68 -48 8 C-45.88954128 7.72527833 -43.77638513 7.46427424 -41.65673828 7.27294922 C-37.0414188 6.79877837 -32.49974088 5.89290536 -27.9375 5.0625 C-18.64853692 3.4045329 -9.37901324 2.03455008 0 1 C0 0.67 0 0.34 0 0 Z " fill="#598D9B" transform="translate(481,144)"/>
<path d="M0 0 C1.26662476 -0.03951782 1.26662476 -0.03951782 2.55883789 -0.07983398 C8.45862591 -0.09432978 12.93342119 0.95813295 17.8125 4.375 C19.87109375 6.59375 19.87109375 6.59375 21.25 8.875 C21.72308594 9.6278125 22.19617188 10.380625 22.68359375 11.15625 C25.47038732 16.63340829 25.84639213 22.90808998 24.09375 28.78515625 C21.27436861 35.59487178 17.32764361 39.86917293 10.8125 43.375 C8.17211914 44.09521484 8.17211914 44.09521484 5.34765625 44.5859375 C4.30738281 44.77575195 3.26710938 44.96556641 2.1953125 45.16113281 C1.09960938 45.35545898 0.00390625 45.54978516 -1.125 45.75 C-27.27476728 50.73339851 -47.91004292 62.04420376 -67.1875 80.375 C-67.68894531 80.84921387 -68.19039062 81.32342773 -68.70703125 81.81201172 C-107.10985527 118.35776487 -127.50790316 169.55534846 -147.0776062 217.73898315 C-156.41549239 240.72554012 -166.09229928 263.37923848 -177.99609375 285.18212891 C-179.17146395 287.34548446 -180.32163134 289.52077734 -181.46875 291.69921875 C-194.25922832 315.69079414 -210.38721726 337.8733964 -228.1875 358.375 C-228.78820312 359.08785156 -229.38890625 359.80070312 -230.0078125 360.53515625 C-238.47672455 370.49737888 -247.88354798 379.3450236 -258.1875 387.375 C-259.19425781 388.17550781 -260.20101562 388.97601562 -261.23828125 389.80078125 C-307.61727026 426.4131365 -366.72879054 445.04071427 -425.8515625 441.1328125 C-432.69226345 440.28421922 -438.21522522 438.27624228 -443.1875 433.375 C-447.36908684 427.77010309 -449.03865719 422.08271407 -448.6640625 415.11328125 C-447.47826811 408.29982332 -444.57055222 403.08751295 -439.125 398.8125 C-434.31118372 395.44759476 -430.31564472 395.26002863 -424.5 395.34765625 C-423.15853516 395.3624208 -421.81706328 395.37655615 -420.47558594 395.39013672 C-419.4260675 395.40267487 -419.4260675 395.40267487 -418.35534668 395.41546631 C-382.24797458 395.7824566 -348.20451434 389.59161697 -316.1875 372.375 C-315.59662598 372.06481934 -315.00575195 371.75463867 -314.39697266 371.43505859 C-298.94432095 363.29324628 -285.6686682 352.49785715 -273.1875 340.375 C-272.61257813 339.82585937 -272.03765625 339.27671875 -271.4453125 338.7109375 C-263.41042801 331.02692133 -256.14840528 323.07075532 -249.50976562 314.15039062 C-248.18090591 312.3661462 -246.8337559 310.59688184 -245.484375 308.828125 C-220.86624066 276.26695072 -204.66136049 238.93632827 -189.703125 201.21875 C-168.84389801 148.62253714 -145.84713973 96.66789257 -106.1875 55.375 C-105.62047363 54.7754248 -105.05344727 54.17584961 -104.46923828 53.55810547 C-95.13077025 43.71180534 -85.22735259 35.25762202 -74.1875 27.375 C-73.548125 26.91222656 -72.90875 26.44945312 -72.25 25.97265625 C-51.29949422 10.91448022 -25.93275627 0.5233962 0 0 Z " fill="#FDFCEE" transform="translate(734.1875,298.625)"/>
<path d="M0 0 C3.16333095 1.58166548 3.41107635 4.3106766 4.625 7.5625 C7.88850039 16.00345608 11.79306516 23.99385839 16 32 C16.44118164 32.8451416 16.88236328 33.6902832 17.33691406 34.56103516 C24.1643104 47.57531952 31.54893062 59.97578689 40 72 C40.68449219 72.97710938 41.36898437 73.95421875 42.07421875 74.9609375 C45.06810344 79.14107839 48.17253628 83.230719 51.30859375 87.3046875 C52.18946655 88.45022095 52.18946655 88.45022095 53.08813477 89.61889648 C54.2580373 91.13694053 55.43157049 92.65219512 56.60913086 94.16430664 C57.14803955 94.86160889 57.68694824 95.55891113 58.2421875 96.27734375 C58.96704346 97.20921509 58.96704346 97.20921509 59.70654297 98.15991211 C61.02455399 100.03493081 62.02922851 101.92701629 63 104 C63.66 104 64.32 104 65 104 C66.24184201 105.43384751 67.41542288 106.92677025 68.5625 108.4375 C77.63845351 119.77144518 88.19221756 130.16831315 99.625 139.1171875 C101.85626762 140.88605427 103.91974439 142.74538636 106 144.6875 C124.19879727 161.00478169 145.74205426 174.10891116 167 186 C167.93561768 186.53270508 167.93561768 186.53270508 168.89013672 187.07617188 C187.89443055 197.88160577 208.37626736 205.88547932 229 213 C225.47657703 214.23840055 223.46089075 213.75824535 219.984375 212.515625 C218.49719971 211.98727051 218.49719971 211.98727051 216.97998047 211.44824219 C215.38114014 210.8551123 215.38114014 210.8551123 213.75 210.25 C212.63898926 209.84168945 211.52797852 209.43337891 210.38330078 209.01269531 C187.80473394 200.55331427 165.9062407 189.92816745 145.96362305 176.30859375 C143.06078743 174.37409183 140.04635894 172.69893095 137 171 C135.33333333 170 133.66666667 169 132 168 C131.34 167.67 130.68 167.34 130 167 C129.45085937 166.4328125 128.90171875 165.865625 128.3359375 165.28125 C125.3274652 162.34321017 122.01761844 159.97380115 118.625 157.5 C111.30389818 152.08492938 104.34006688 146.36092804 97.51513672 140.3359375 C96.18541239 139.16348318 94.84545961 138.00265056 93.50390625 136.84375 C81.36395015 126.1982573 69.95391753 114.71246444 60 102 C58.44077617 100.16387952 56.87807275 98.33071006 55.3125 96.5 C40.40357686 78.56775034 27.97942607 59.18517798 16.6875 38.8125 C16.2128833 37.95664307 15.7382666 37.10078613 15.24926758 36.21899414 C14.82025146 35.43129639 14.39123535 34.64359863 13.94921875 33.83203125 C13.57112061 33.13827393 13.19302246 32.4445166 12.8034668 31.72973633 C12 30 12 30 12 28 C11.34 27.67 10.68 27.34 10 27 C9.140625 25.20703125 9.140625 25.20703125 8.25 22.8125 C7.03192173 19.61965847 5.780079 16.45667872 4.40625 13.328125 C4.13264648 12.70446045 3.85904297 12.0807959 3.57714844 11.43823242 C2.77786776 9.62569599 1.9749367 7.81477063 1.171875 6.00390625 C0 3 0 3 0 0 Z " fill="#4B7480" transform="translate(174,640)"/>
<path d="M0 0 C0.99 0.495 0.99 0.495 2 1 C-31.369817 33.52791795 -76.04404322 57.22639527 -119.625 72.625 C-121.07422852 73.13981934 -121.07422852 73.13981934 -122.55273438 73.66503906 C-123.45572266 73.9740918 -124.35871094 74.28314453 -125.2890625 74.6015625 C-126.08006348 74.87307129 -126.87106445 75.14458008 -127.68603516 75.42431641 C-130.20217429 76.05029827 -132.41718903 76.10235182 -135 76 C-132.66716173 73.66716173 -131.06909328 73.2207259 -127.94140625 72.23046875 C-126.91466797 71.89853516 -125.88792969 71.56660156 -124.83007812 71.22460938 C-122.68701048 70.54441277 -120.5437866 69.86470817 -118.40039062 69.18554688 C-112.18748427 67.17628293 -106.28805882 64.87863628 -100.37866211 62.1003418 C-97.63744816 60.83228768 -94.85151536 59.80485975 -92 58.8125 C-83.738287 55.68618156 -76.06382856 51.49220248 -68.32080078 47.265625 C-66.20807963 46.1134741 -64.08758384 44.97728792 -61.96484375 43.84375 C-39.63360606 31.76486327 -19.27166195 16.44960741 0 0 Z " fill="#4A7580" transform="translate(753,781)"/>
<path d="M0 0 C-1.2375 0.44988281 -2.475 0.89976562 -3.75 1.36328125 C-35.28967316 13.00328971 -65.72874107 27.8738634 -92.91796875 47.76171875 C-96.86711204 50.62972775 -100.90995544 53.33822497 -105 56 C-103.64268481 52.83448649 -102.2847354 51.1606487 -99.5 49.15234375 C-98.78569824 48.63454346 -98.07139648 48.11674316 -97.33544922 47.58325195 C-96.56475098 47.04015381 -95.79405273 46.49705566 -95 45.9375 C-94.20996582 45.37184326 -93.41993164 44.80618652 -92.60595703 44.22338867 C-86.09729119 39.62620169 -79.37918689 35.42627375 -72.48828125 31.42749023 C-70.62863741 30.33486631 -68.80929562 29.17411737 -67 28 C-67 27.34 -67 26.68 -67 26 C-66.29641357 25.8956665 -65.59282715 25.79133301 -64.86791992 25.68383789 C-61.600877 24.90483157 -59.07406692 23.6422368 -56.11328125 22.05859375 C-55.01048828 21.47529297 -53.90769531 20.89199219 -52.77148438 20.29101562 C-51.63001953 19.67935547 -50.48855469 19.06769531 -49.3125 18.4375 C-47.03969387 17.22423569 -44.76504683 16.01441153 -42.48828125 14.80859375 C-41.48321533 14.27032959 -40.47814941 13.73206543 -39.44262695 13.17749023 C-37 12 -37 12 -35 12 C-34.67 11.34 -34.34 10.68 -34 10 C-32.26318359 9.27587891 -32.26318359 9.27587891 -30.0234375 8.6015625 C-25.13468426 7.06233128 -20.38993312 5.25862515 -15.625 3.375 C-14.0549341 2.75718545 -12.48463143 2.13997217 -10.9140625 1.5234375 C-9.8923999 1.1200415 -9.8923999 1.1200415 -8.85009766 0.70849609 C-5.36141469 -0.62749731 -3.57007166 -1.10795327 0 0 Z " fill="#4E7985" transform="translate(395,166)"/>
<path d="M0 0 C7.53549567 1.07163934 13.29825021 10.16048128 18.01171875 15.67578125 C19.53781257 17.45972196 21.08641708 19.22442575 22.64453125 20.98046875 C30.76953927 30.19188935 37.96516136 39.93985268 45 50 C45.45020508 50.63373535 45.90041016 51.2674707 46.36425781 51.92041016 C47.54595537 53.58470244 48.71115676 55.26067359 49.875 56.9375 C50.51179687 57.85402344 51.14859375 58.77054687 51.8046875 59.71484375 C52.19914063 60.46894531 52.59359375 61.22304688 53 62 C52.67 62.99 52.34 63.98 52 65 C51.12601563 63.65421875 51.12601563 63.65421875 50.234375 62.28125 C40.72879046 47.76413083 30.37378814 34.09984225 19 21 C18.09894531 19.93072266 18.09894531 19.93072266 17.1796875 18.83984375 C13.01758335 13.94384201 8.501992 9.43683406 3.91040039 4.94702148 C2.58970496 3.64864292 1.29249587 2.32645307 0 1 C0 0.67 0 0.34 0 0 Z " fill="#497480" transform="translate(770,249)"/>
<path d="M0 0 C-3.31723723 3.01177997 -5.52914454 3.37172694 -9.95849609 3.35644531 C-11.76089249 3.36094696 -11.76089249 3.36094696 -13.59970093 3.36553955 C-14.894534 3.35319275 -16.18936707 3.34084595 -17.5234375 3.328125 C-18.87097971 3.32506462 -20.21852508 3.32319062 -21.56607056 3.32244873 C-24.38889705 3.31785042 -27.21143752 3.30344708 -30.03417969 3.28125 C-33.6409027 3.2530225 -37.24740027 3.24204294 -40.85422325 3.2375679 C-44.30648996 3.23239327 -47.75870087 3.21785844 -51.2109375 3.203125 C-52.50172211 3.19887512 -53.79250671 3.19462524 -55.12240601 3.19024658 C-56.33030792 3.18063904 -57.53820984 3.17103149 -58.78271484 3.16113281 C-59.8409848 3.15430481 -60.89925476 3.14747681 -61.98959351 3.14044189 C-65.06222057 2.99709728 -67.97915349 2.56674188 -71 2 C-71 1.67 -71 1.34 -71 1 C-63.51462515 0.86838436 -56.02923102 0.73791537 -48.5438118 0.60884857 C-45.0667957 0.54886165 -41.58978695 0.48850246 -38.11279297 0.42724609 C-34.10125651 0.35658961 -30.08969226 0.28763581 -26.078125 0.21875 C-24.84950745 0.19687622 -23.62088989 0.17500244 -22.3550415 0.15246582 C-14.90249171 0.02605442 -7.45359261 -0.02691059 0 0 Z " fill="#4D7B87" transform="translate(557,869)"/>
<path d="M0 0 C3.47511182 0.57734339 6.25988064 1.45349508 9.37890625 3.08203125 C10.20745117 3.51314209 11.03599609 3.94425293 11.88964844 4.38842773 C12.77168945 4.85837158 13.65373047 5.32831543 14.5625 5.8125 C15.48708008 6.30242432 16.41166016 6.79234863 17.36425781 7.29711914 C30.55843453 14.36158532 43.36026035 21.97796946 55.625 30.5625 C56.34204102 31.06322021 57.05908203 31.56394043 57.79785156 32.07983398 C58.45495117 32.54977783 59.11205078 33.01972168 59.7890625 33.50390625 C60.36350098 33.91455322 60.93793945 34.3252002 61.52978516 34.74829102 C63 36 63 36 65 39 C59.78011674 37.32963736 55.67537123 34.1274945 51.25 31 C37.73554674 21.61741191 23.64996141 13.6818499 9.046875 6.12890625 C5.96336147 4.52131689 2.91331604 2.90530869 0 1 C0 0.67 0 0.34 0 0 Z " fill="#4B7884" transform="translate(671,180)"/>
<path d="M0 0 C0.66 0.33 1.32 0.66 2 1 C-0.70559615 3.56540281 -3.4149665 6.12678578 -6.125 8.6875 C-6.88554687 9.40873047 -7.64609375 10.12996094 -8.4296875 10.87304688 C-11.70179578 13.96180426 -14.96288113 17.02339042 -18.4453125 19.875 C-20.74164343 21.7850979 -22.24043241 23.62458375 -24 26 C-24.66 26 -25.32 26 -26 26 C-26.27094482 26.59312988 -26.54188965 27.18625977 -26.82104492 27.79736328 C-27.98334767 29.96888852 -29.17169063 31.46622083 -30.86328125 33.2421875 C-31.42080078 33.83386719 -31.97832031 34.42554688 -32.55273438 35.03515625 C-33.13345703 35.64230469 -33.71417969 36.24945313 -34.3125 36.875 C-38.3626846 41.14076634 -42.28287521 45.43902511 -46 50 C-46 45.85588152 -44.23613365 44.60325028 -41.5625 41.5 C-38.14081908 37.61639347 -38.14081908 37.61639347 -36 33 C-34.67786655 32.31138883 -33.3430625 31.6468426 -32 31 C-30.44565676 29.47043591 -30.44565676 29.47043591 -29 27.625 C-25.23677627 23.14536388 -21.12465488 19.08936849 -16.91210938 15.03759766 C-15.57192804 13.72771978 -14.28128389 12.36754439 -13 11 C-13 10.34 -13 9.68 -13 9 C-12.34 8.814375 -11.68 8.62875 -11 8.4375 C-6.68660782 6.37066625 -3.48543481 3.23462189 0 0 Z " fill="#4E7A86" transform="translate(276,231)"/>
<path d="M0 0 C0.33 0 0.66 0 1 0 C1.07593591 7.6354334 1.12855169 15.27076977 1.16479492 22.90649414 C1.17990063 25.50516397 1.20038634 28.10380823 1.22631836 30.70239258 C1.26262243 34.43316958 1.27970858 38.16361013 1.29296875 41.89453125 C1.30845261 43.06023148 1.32393646 44.2259317 1.33988953 45.42695618 C1.34011612 46.50785019 1.34034271 47.5887442 1.34057617 48.70239258 C1.34723801 49.65503494 1.35389984 50.60767731 1.36076355 51.58918762 C0.9403808 54.39840692 0.19227989 55.26703814 -2 57 C-2.1259809 50.39300156 -1.89152333 43.86800641 -1.42822266 37.27734375 C-0.91683729 29.52581812 -0.68642235 21.76340066 -0.4375 14 C-0.41535431 13.30981781 -0.39320862 12.61963562 -0.37039185 11.90853882 C-0.24378552 7.93912057 -0.12056128 3.96960615 0 0 Z " fill="#426C78" transform="translate(879,490)"/>
<path d="M0 0 C4.88966696 1.51938804 8.06117479 4.35479725 11.8125 7.6875 C12.4305249 8.22697266 13.0485498 8.76644531 13.68530273 9.32226562 C15.4623803 10.87537315 17.23202607 12.43654613 19 14 C20.52036834 15.33386353 22.04109505 16.66731895 23.5625 18 C24.16320312 18.53109375 24.76390625 19.0621875 25.3828125 19.609375 C26.85651547 20.87661717 28.39449347 22.06812266 29.9375 23.25 C32 25 32 25 33 28 C30.20631697 26.71984516 28.10935942 25.37077653 25.8984375 23.2421875 C25.3305249 22.70271484 24.7626123 22.16324219 24.17749023 21.60742188 C23.58266846 21.03572266 22.98784668 20.46402344 22.375 19.875 C17.44763357 15.20933762 12.42735098 10.82489236 7.06640625 6.65625 C4.50111907 4.6001408 2.24632441 2.39607937 0 0 Z " fill="#4B7682" transform="translate(737,220)"/>
<path d="M0 0 C0.66 0.33 1.32 0.66 2 1 C-2.12854252 5.24465778 -6.38067434 9.23631062 -10.875 13.08984375 C-14.1114992 15.99912336 -17.10722708 19.1362875 -20.1171875 22.27734375 C-22 24 -22 24 -24 24 C-22.88559348 20.65678045 -22.02527657 19.93980381 -19.375 17.75 C-16.63140123 15.42624019 -14.01328204 13.07119176 -11.5 10.5 C-7.85099458 6.78357646 -3.9577764 3.38209983 0 0 Z " fill="#5F95A2" transform="translate(278,231)"/>
<path d="M0 0 C0.66 0 1.32 0 2 0 C0.4469385 3.3913792 -1.5393511 6.25105769 -3.75 9.25 C-4.45640625 10.21035156 -5.1628125 11.17070312 -5.890625 12.16015625 C-8.58144523 15.78279757 -11.27757288 19.40103384 -14 23 C-14.33 22.34 -14.66 21.68 -15 21 C-7.67578125 10.74609375 -7.67578125 10.74609375 -6.34228516 8.89013672 C-5.42193421 7.59414599 -4.51600906 6.28782475 -3.62255859 4.97314453 C-2.46232028 3.28200025 -1.23625088 1.63640022 0 0 Z " fill="#4A7581" transform="translate(226,282)"/>
<path d="M0 0 C0.66 0.33 1.32 0.66 2 1 C-0.7457637 3.13051919 -3.49732217 5.25342392 -6.25 7.375 C-7.02730469 7.97828125 -7.80460937 8.5815625 -8.60546875 9.203125 C-9.35957031 9.78320312 -10.11367188 10.36328125 -10.890625 10.9609375 C-11.92751465 11.76217041 -11.92751465 11.76217041 -12.98535156 12.57958984 C-14.92541847 13.94741695 -16.85056359 15.00114426 -19 16 C-17.59576609 12.63238022 -16.07842297 11.03891726 -13.0859375 8.984375 C-12.32539063 8.45585937 -11.56484375 7.92734375 -10.78125 7.3828125 C-9.59015625 6.57457031 -9.59015625 6.57457031 -8.375 5.75 C-7.57320313 5.19570312 -6.77140625 4.64140625 -5.9453125 4.0703125 C-3.96881391 2.70558728 -1.98707578 1.34925682 0 0 Z " fill="#4A7581" transform="translate(309,206)"/>
<path d="M0 0 C1.09814453 3.77636719 1.09814453 3.77636719 0.21484375 5.7890625 C-0.20667969 6.39492188 -0.62820313 7.00078125 -1.0625 7.625 C-3.24125793 10.86865647 -5.31423277 14.14100795 -7.3125 17.5 C-8.08013672 18.78390625 -8.08013672 18.78390625 -8.86328125 20.09375 C-9.23839844 20.7228125 -9.61351562 21.351875 -10 22 C-10.33 21.34 -10.66 20.68 -11 20 C-10.10375977 17.93701172 -10.10375977 17.93701172 -8.69140625 15.4296875 C-8.19189453 14.53378906 -7.69238281 13.63789062 -7.17773438 12.71484375 C-6.64470703 11.77769531 -6.11167969 10.84054687 -5.5625 9.875 C-5.03333984 8.93011719 -4.50417969 7.98523438 -3.95898438 7.01171875 C-2.64641061 4.67037095 -1.32651055 2.3334713 0 0 Z " fill="#316E80" transform="translate(559,577)"/>
<path d="M0 0 C1.52644141 3.93763547 0.42982376 6.7673759 -0.8125 10.6875 C-1.16957031 11.84636719 -1.52664062 13.00523437 -1.89453125 14.19921875 C-3 17 -3 17 -5 18 C-4.38487182 12.99109914 -3.7282448 7.99367864 -3 3 C-2.34 3 -1.68 3 -1 3 C-0.67 2.01 -0.34 1.02 0 0 Z " fill="#4C7883" transform="translate(168,389)"/>
<path d="M0 0 C4.10447392 0.51776621 5.95699523 2.64627444 8.75 5.5625 C9.94882812 6.80193359 9.94882812 6.80193359 11.171875 8.06640625 C11.77515625 8.70449219 12.3784375 9.34257812 13 10 C12.34 10.66 11.68 11.32 11 12 C9.16364422 10.19047409 7.33083792 8.37759362 5.5 6.5625 C4.97535156 6.04623047 4.45070313 5.52996094 3.91015625 4.99804688 C2.58775448 3.68423213 1.29164432 2.34406495 0 1 C0 0.67 0 0.34 0 0 Z " fill="#4F7C88" transform="translate(770,249)"/>
<path d="M0 0 C-2.69557909 2.75942175 -3.94740016 2.99899659 -7.890625 3.07421875 C-9.34512042 2.96182592 -10.79838312 2.83240522 -12.25 2.6875 C-12.99507812 2.62626953 -13.74015625 2.56503906 -14.5078125 2.50195312 C-16.33982155 2.3492857 -18.17014316 2.17660246 -20 2 C-20 1.67 -20 1.34 -20 1 C-13.30324864 -0.03026944 -6.7685324 -0.10152799 0 0 Z " fill="#4C7883" transform="translate(557,869)"/>
<path d="M0 0 C0 3.52032428 -0.70351351 4.4385343 -3 7 C-3.66 7 -4.32 7 -5 7 C-5.268125 7.639375 -5.53625 8.27875 -5.8125 8.9375 C-7 11 -7 11 -10 12 C-9.34 10.68 -8.68 9.36 -8 8 C-7.34 8 -6.68 8 -6 8 C-5.7525 7.4225 -5.505 6.845 -5.25 6.25 C-3.83316683 3.6997003 -2.12372463 1.98214299 0 0 Z " fill="#47717D" transform="translate(784,751)"/>
<path d="M0 0 C0.66 0 1.32 0 2 0 C0.61811547 3.21043882 -0.92421903 5.04936365 -3.625 7.25 C-4.57246094 8.03117187 -4.57246094 8.03117187 -5.5390625 8.828125 C-6.02117188 9.21484375 -6.50328125 9.6015625 -7 10 C-6.22976993 6.22031427 -4.97047577 4.52040369 -2 2 C-1.34 2 -0.68 2 0 2 C0 1.34 0 0.68 0 0 Z " fill="#E1E6E3" transform="translate(665,377)"/>
<path d="M0 0 C0.33 0 0.66 0 1 0 C1.17615457 3.87540045 1.28341107 6.75515269 -1 10 C-1.99 10.33 -2.98 10.66 -4 11 C-3.52269162 9.5410574 -3.04308958 8.08286504 -2.5625 6.625 C-2.29566406 5.81289063 -2.02882813 5.00078125 -1.75390625 4.1640625 C-1 2 -1 2 0 0 Z " fill="#3A7687" transform="translate(602,479)"/>
<path d="M0 0 C0.99 0.33 1.98 0.66 3 1 C0.03 3.64 -2.94 6.28 -6 9 C-6.33 8.01 -6.66 7.02 -7 6 C-5.90716423 4.96704564 -4.80029421 3.94892165 -3.6875 2.9375 C-3.07261719 2.36902344 -2.45773437 1.80054688 -1.82421875 1.21484375 C-0.92123047 0.61349609 -0.92123047 0.61349609 0 0 Z " fill="#F4F4F0" transform="translate(675,368)"/>
<path d="M0 0 C0 3.77910478 -0.99703962 4.46106101 -3.5 7.1875 C-4.47453125 8.26064453 -4.47453125 8.26064453 -5.46875 9.35546875 C-5.9740625 9.89816406 -6.479375 10.44085938 -7 11 C-7 7.22089522 -6.00296038 6.53893899 -3.5 3.8125 C-2.8503125 3.09707031 -2.200625 2.38164062 -1.53125 1.64453125 C-1.0259375 1.10183594 -0.520625 0.55914062 0 0 Z " fill="#48727D" transform="translate(237,270)"/>
<path d="M0 0 C0.66 0.33 1.32 0.66 2 1 C0.71372289 2.17260611 -0.57919783 3.3379283 -1.875 4.5 C-2.59429687 5.1496875 -3.31359375 5.799375 -4.0546875 6.46875 C-6 8 -6 8 -8 8 C-8 7.34 -8 6.68 -8 6 C-6.25 4.4921875 -6.25 4.4921875 -4 2.875 C-3.2575 2.33617187 -2.515 1.79734375 -1.75 1.2421875 C-1.1725 0.83226562 -0.595 0.42234375 0 0 Z " fill="#487380" transform="translate(287,222)"/>
<path d="M0 0 C0 3 0 3 -1.875 5.1875 C-4 7 -4 7 -6 7 C-4.60667426 3.63279613 -3.0210714 2.0140476 0 0 Z " fill="#F7F8F5" transform="translate(296,697)"/>
<path d="M0 0 C0.66 0.33 1.32 0.66 2 1 C0.35 2.98 -1.3 4.96 -3 7 C-3.99 6.34 -4.98 5.68 -6 5 C-4.02 3.35 -2.04 1.7 0 0 Z " fill="#3D7687" transform="translate(472,688)"/>
<path d="M0 0 C1 2 1 2 0.25 4.9375 C-0.89726872 7.74830836 -1.69701628 9.1157406 -4 11 C-3.48964169 6.6109185 -2.47785723 3.66291938 0 0 Z " fill="#357183" transform="translate(585,521)"/>
<path d="M0 0 C0.33 0 0.66 0 1 0 C0.67 4.29 0.34 8.58 0 13 C-0.33 13 -0.66 13 -1 13 C-1.2236337 11.58566794 -1.42826476 10.16832382 -1.625 8.75 C-1.74101562 7.96109375 -1.85703125 7.1721875 -1.9765625 6.359375 C-2.00319395 3.67847541 -1.36592084 2.27305911 0 0 Z " fill="#4C7782" transform="translate(154,443)"/>
<path d="M0 0 C1.98 0 3.96 0 6 0 C5.67 0.66 5.34 1.32 5 2 C3.35 1.67 1.7 1.34 0 1 C0 0.67 0 0.34 0 0 Z " fill="#61919B" transform="translate(464,870)"/>
<path d="M0 0 C0.99 0.33 1.98 0.66 3 1 C2.67 1.66 2.34 2.32 2 3 C1.01 2.34 0.02 1.68 -1 1 C-0.67 0.67 -0.34 0.34 0 0 Z " fill="#60909C" transform="translate(353,836)"/>
<path d="M0 0 C0.66 0.66 1.32 1.32 2 2 C0.68 2.33 -0.64 2.66 -2 3 C-1.34 2.01 -0.68 1.02 0 0 Z " fill="#61909C" transform="translate(340,184)"/>
<path d="M0 0 C0.66 0.66 1.32 1.32 2 2 C0.68 1.67 -0.64 1.34 -2 1 C-1.34 0.67 -0.68 0.34 0 0 Z " fill="#60909A" transform="translate(226,734)"/>
<path d="M0 0 C0.33 1.32 0.66 2.64 1 4 C0.34 3.01 -0.32 2.02 -1 1 C-0.67 0.67 -0.34 0.34 0 0 Z " fill="#61919D" transform="translate(148,540)"/>
<path d="M0 0 C1.65 0 3.3 0 5 0 C5 0.33 5 0.66 5 1 C3.35 1 1.7 1 0 1 C0 0.67 0 0.34 0 0 Z " fill="#61929D" transform="translate(546,144)"/>
<path d="M0 0 C0.66 0.66 1.32 1.32 2 2 C1.01 1.67 0.02 1.34 -1 1 C-0.67 0.67 -0.34 0.34 0 0 Z " fill="#608E9A" transform="translate(202,701)"/>
<path d="M0 0 C4 1 4 1 4 1 Z " fill="#61919C" transform="translate(466,145)"/>
<path d="M0 0 C0.66 0.66 1.32 1.32 2 2 C1.34 2 0.68 2 0 2 C0 1.34 0 0.68 0 0 Z " fill="#5F8E9A" transform="translate(337,828)"/>
<path d="M0 0 C3 1 3 1 3 1 Z " fill="#5E8D97" transform="translate(187,678)"/>
<path d="M0 0 C0.33 0.66 0.66 1.32 1 2 C0.34 1.67 -0.32 1.34 -1 1 C-0.67 0.67 -0.34 0.34 0 0 Z " fill="#61909B" transform="translate(170,636)"/>
<path d="" fill="#62929D" transform="translate(0,0)"/>
<path d="" fill="#61909D" transform="translate(0,0)"/>
<path d="M0 0 C0.33 0.66 0.66 1.32 1 2 C0.34 1.67 -0.32 1.34 -1 1 C-0.67 0.67 -0.34 0.34 0 0 Z " fill="#60909B" transform="translate(300,208)"/>
<path d="M0 0 C2 1 2 1 2 1 Z " fill="#60919C" transform="translate(472,871)"/>
<path d="M0 0 C2 1 2 1 2 1 Z " fill="#61909A" transform="translate(568,870)"/>
<path d="M0 0 C2 1 2 1 2 1 Z " fill="#618E9A" transform="translate(457,869)"/>
<path d="M0 0 C2 1 2 1 2 1 Z " fill="#61909A" transform="translate(603,863)"/>
<path d="" fill="#608D98" transform="translate(0,0)"/>
<path d="M0 0 C2 1 2 1 2 1 Z " fill="#61909A" transform="translate(636,853)"/>
<path d="M0 0 C2 1 2 1 2 1 Z " fill="#5F8D97" transform="translate(321,819)"/>
<path d="" fill="#5F8F99" transform="translate(0,0)"/>
<path d="M0 0 C2 1 2 1 2 1 Z " fill="#5F9099" transform="translate(217,723)"/>
<path d="M0 0 C2 1 2 1 2 1 Z " fill="#64919B" transform="translate(192,685)"/>
<path d="" fill="#608E98" transform="translate(0,0)"/>
<path d="" fill="#5F8E9A" transform="translate(0,0)"/>
<path d="" fill="#5F8D9B" transform="translate(0,0)"/>
<path d="" fill="#5F8F98" transform="translate(0,0)"/>
<path d="" fill="#63929C" transform="translate(0,0)"/>
<path d="" fill="#63909B" transform="translate(0,0)"/>
<path d="" fill="#5F919A" transform="translate(0,0)"/>
<path d="" fill="#61919D" transform="translate(0,0)"/>
<path d="" fill="#62929D" transform="translate(0,0)"/>
<path d="" fill="#5E909B" transform="translate(0,0)"/>
<path d="" fill="#60929C" transform="translate(0,0)"/>
<path d="" fill="#64939D" transform="translate(0,0)"/>
<path d="" fill="#61939F" transform="translate(0,0)"/>
<path d="" fill="#62919D" transform="translate(0,0)"/>
<path d="" fill="#63919C" transform="translate(0,0)"/>
<path d="" fill="#5F8E9B" transform="translate(0,0)"/>
<path d="" fill="#5E8D99" transform="translate(0,0)"/>
<path d="M0 0 C2 1 2 1 2 1 Z " fill="#5F909B" transform="translate(748,226)"/>
<path d="M0 0 C2 1 2 1 2 1 Z " fill="#608F9A" transform="translate(712,200)"/>
<path d="M0 0 C2 1 2 1 2 1 Z " fill="#5F929C" transform="translate(698,192)"/>
<path d="M0 0 C2 1 2 1 2 1 Z " fill="#5E8E9B" transform="translate(667,176)"/>
<path d="M0 0 C2 1 2 1 2 1 Z " fill="#618F9B" transform="translate(656,171)"/>
<path d="M0 0 C2 1 2 1 2 1 Z " fill="#62949D" transform="translate(377,168)"/>
<path d="M0 0 C2 1 2 1 2 1 Z " fill="#63939C" transform="translate(597,152)"/>
<path d="" fill="#2A3B3C" transform="translate(0,0)"/>
<path d="" fill="#639099" transform="translate(0,0)"/>
<path d="" fill="#62909C" transform="translate(0,0)"/>
<path d="" fill="#5F909C" transform="translate(0,0)"/>
<path d="" fill="#618F9B" transform="translate(0,0)"/>
<path d="" fill="#628F9A" transform="translate(0,0)"/>
<path d="" fill="#638F9A" transform="translate(0,0)"/>
<path d="" fill="#619099" transform="translate(0,0)"/>
<path d="" fill="#63919B" transform="translate(0,0)"/>
<path d="" fill="#61909B" transform="translate(0,0)"/>
<path d="" fill="#5D8E99" transform="translate(0,0)"/>
<path d="" fill="#5F8E98" transform="translate(0,0)"/>
<path d="" fill="#629099" transform="translate(0,0)"/>
<path d="" fill="#628F9B" transform="translate(0,0)"/>
<path d="" fill="#608D99" transform="translate(0,0)"/>
<path d="" fill="#63949B" transform="translate(0,0)"/>
<path d="" fill="#608F98" transform="translate(0,0)"/>
<path d="" fill="#5F909A" transform="translate(0,0)"/>
<path d="" fill="#618F99" transform="translate(0,0)"/>
<path d="" fill="#63919C" transform="translate(0,0)"/>
<path d="" fill="#6293A0" transform="translate(0,0)"/>
<path d="" fill="#5F8E9A" transform="translate(0,0)"/>
<path d="" fill="#608E99" transform="translate(0,0)"/>
<path d="" fill="#61919B" transform="translate(0,0)"/>
<path d="" fill="#5F8E97" transform="translate(0,0)"/>
<path d="" fill="#5E8C99" transform="translate(0,0)"/>
<path d="" fill="#5F8D95" transform="translate(0,0)"/>
<path d="" fill="#608D96" transform="translate(0,0)"/>
<path d="" fill="#5D8D97" transform="translate(0,0)"/>
<path d="" fill="#608D99" transform="translate(0,0)"/>
<path d="" fill="#5F8C95" transform="translate(0,0)"/>
<path d="" fill="#5F8D95" transform="translate(0,0)"/>
<path d="" fill="#5F8F97" transform="translate(0,0)"/>
<path d="" fill="#5F8D96" transform="translate(0,0)"/>
<path d="" fill="#5F8D96" transform="translate(0,0)"/>
<path d="" fill="#5F8E99" transform="translate(0,0)"/>
<path d="" fill="#628F98" transform="translate(0,0)"/>
<path d="" fill="#62919B" transform="translate(0,0)"/>
<path d="" fill="#5D8D97" transform="translate(0,0)"/>
<path d="" fill="#5E8D99" transform="translate(0,0)"/>
<path d="" fill="#5E8E97" transform="translate(0,0)"/>
<path d="" fill="#61929C" transform="translate(0,0)"/>
<path d="" fill="#5E8D98" transform="translate(0,0)"/>
<path d="" fill="#5F8D99" transform="translate(0,0)"/>
<path d="" fill="#5F8C96" transform="translate(0,0)"/>
<path d="" fill="#608C97" transform="translate(0,0)"/>
<path d="" fill="#5E8D97" transform="translate(0,0)"/>
<path d="" fill="#62919A" transform="translate(0,0)"/>
<path d="" fill="#5E8E98" transform="translate(0,0)"/>
<path d="" fill="#5C8D96" transform="translate(0,0)"/>
<path d="" fill="#61919B" transform="translate(0,0)"/>
<path d="" fill="#61909C" transform="translate(0,0)"/>
<path d="" fill="#608F98" transform="translate(0,0)"/>
<path d="" fill="#5F919B" transform="translate(0,0)"/>
<path d="" fill="#608F99" transform="translate(0,0)"/>
<path d="" fill="#618D9A" transform="translate(0,0)"/>
<path d="" fill="#61919C" transform="translate(0,0)"/>
<path d="" fill="#5F8D96" transform="translate(0,0)"/>
<path d="" fill="#5D8B99" transform="translate(0,0)"/>
<path d="" fill="#5F8D99" transform="translate(0,0)"/>
<path d="" fill="#629299" transform="translate(0,0)"/>
<path d="" fill="#608F9A" transform="translate(0,0)"/>
<path d="" fill="#60909A" transform="translate(0,0)"/>
<path d="" fill="#5F8D97" transform="translate(0,0)"/>
<path d="" fill="#628F9B" transform="translate(0,0)"/>
<path d="" fill="#63919D" transform="translate(0,0)"/>
<path d="" fill="#5F8D97" transform="translate(0,0)"/>
<path d="" fill="#60909C" transform="translate(0,0)"/>
<path d="" fill="#63919A" transform="translate(0,0)"/>
<path d="" fill="#61909B" transform="translate(0,0)"/>
<path d="" fill="#5D8E99" transform="translate(0,0)"/>
<path d="" fill="#63909C" transform="translate(0,0)"/>
<path d="" fill="#5F909D" transform="translate(0,0)"/>
<path d="" fill="#62949E" transform="translate(0,0)"/>
<path d="" fill="#62919B" transform="translate(0,0)"/>
<path d="" fill="#61919C" transform="translate(0,0)"/>
<path d="" fill="#60919B" transform="translate(0,0)"/>
<path d="" fill="#5F8F99" transform="translate(0,0)"/>
<path d="" fill="#63939C" transform="translate(0,0)"/>
<path d="" fill="#62929F" transform="translate(0,0)"/>
<path d="" fill="#618F9A" transform="translate(0,0)"/>
<path d="" fill="#63929C" transform="translate(0,0)"/>
<path d="" fill="#62919C" transform="translate(0,0)"/>
<path d="" fill="#64939F" transform="translate(0,0)"/>
<path d="" fill="#62919D" transform="translate(0,0)"/>
<path d="" fill="#62939E" transform="translate(0,0)"/>
<path d="" fill="#618F9B" transform="translate(0,0)"/>
<path d="" fill="#60939C" transform="translate(0,0)"/>
<path d="" fill="#618E99" transform="translate(0,0)"/>
<path d="" fill="#5F909B" transform="translate(0,0)"/>
<path d="" fill="#61929B" transform="translate(0,0)"/>
<path d="" fill="#63929E" transform="translate(0,0)"/>
<path d="" fill="#618F9A" transform="translate(0,0)"/>
<path d="" fill="#5E8E9A" transform="translate(0,0)"/>
<path d="" fill="#61929C" transform="translate(0,0)"/>
<path d="" fill="#64909D" transform="translate(0,0)"/>
<path d="" fill="#63949F" transform="translate(0,0)"/>
<path d="" fill="#608F9A" transform="translate(0,0)"/>
<path d="" fill="#5F909B" transform="translate(0,0)"/>
<path d="" fill="#63939D" transform="translate(0,0)"/>
<path d="" fill="#60929B" transform="translate(0,0)"/>
<path d="" fill="#63919B" transform="translate(0,0)"/>
<path d="" fill="#61939E" transform="translate(0,0)"/>
<path d="" fill="#648E99" transform="translate(0,0)"/>
<path d="" fill="#62909D" transform="translate(0,0)"/>
<path d="" fill="#5F8E98" transform="translate(0,0)"/>
<path d="" fill="#5F8F9A" transform="translate(0,0)"/>
<path d="" fill="#5E8F97" transform="translate(0,0)"/>
<path d="" fill="#61919C" transform="translate(0,0)"/>
<path d="" fill="#618F9B" transform="translate(0,0)"/>
<path d="" fill="#63929C" transform="translate(0,0)"/>
<path d="" fill="#62909D" transform="translate(0,0)"/>
<path d="" fill="#5F8F9A" transform="translate(0,0)"/>
<path d="" fill="#60919C" transform="translate(0,0)"/>
<path d="" fill="#63969F" transform="translate(0,0)"/>
<path d="" fill="#5D8F99" transform="translate(0,0)"/>
<path d="" fill="#608E9C" transform="translate(0,0)"/>
<path d="" fill="#5E8D99" transform="translate(0,0)"/>
<path d="" fill="#618E99" transform="translate(0,0)"/>
<path d="" fill="#5F8E99" transform="translate(0,0)"/>
<path d="" fill="#5F8D98" transform="translate(0,0)"/>
<path d="" fill="#60919A" transform="translate(0,0)"/>
<path d="" fill="#608F9A" transform="translate(0,0)"/>
<path d="" fill="#5E8E99" transform="translate(0,0)"/>
<path d="" fill="#5F8F9A" transform="translate(0,0)"/>
<path d="" fill="#608E9A" transform="translate(0,0)"/>
<path d="" fill="#61919B" transform="translate(0,0)"/>
<path d="" fill="#618F9A" transform="translate(0,0)"/>
<path d="" fill="#5D8E98" transform="translate(0,0)"/>
<path d="" fill="#608F99" transform="translate(0,0)"/>
<path d="" fill="#608F99" transform="translate(0,0)"/>
<path d="" fill="#60909A" transform="translate(0,0)"/>
<path d="" fill="#608F99" transform="translate(0,0)"/>
<path d="" fill="#61919C" transform="translate(0,0)"/>
<path d="" fill="#5E8E9A" transform="translate(0,0)"/>
<path d="" fill="#62919B" transform="translate(0,0)"/>
<path d="" fill="#5F909A" transform="translate(0,0)"/>
<path d="" fill="#63919B" transform="translate(0,0)"/>
<path d="" fill="#619299" transform="translate(0,0)"/>
<path d="" fill="#5F919B" transform="translate(0,0)"/>
<path d="" fill="#5E919C" transform="translate(0,0)"/>
<path d="" fill="#63909B" transform="translate(0,0)"/>
<path d="" fill="#608F99" transform="translate(0,0)"/>
<path d="" fill="#5F909C" transform="translate(0,0)"/>
<path d="" fill="#60919C" transform="translate(0,0)"/>
<path d="" fill="#608F99" transform="translate(0,0)"/>
<path d="" fill="#618F9A" transform="translate(0,0)"/>
<path d="" fill="#5F909A" transform="translate(0,0)"/>
<path d="" fill="#60909B" transform="translate(0,0)"/>
<path d="" fill="#608F99" transform="translate(0,0)"/>
<path d="" fill="#64939E" transform="translate(0,0)"/>
<path d="" fill="#628F9C" transform="translate(0,0)"/>
<path d="" fill="#60939B" transform="translate(0,0)"/>
<path d="" fill="#63929C" transform="translate(0,0)"/>
<path d="" fill="#62909A" transform="translate(0,0)"/>
<path d="" fill="#619099" transform="translate(0,0)"/>
<path d="" fill="#61919C" transform="translate(0,0)"/>
<path d="" fill="#5E919C" transform="translate(0,0)"/>
<path d="" fill="#60919D" transform="translate(0,0)"/>
<path d="" fill="#64939D" transform="translate(0,0)"/>
<path d="" fill="#66939E" transform="translate(0,0)"/>
<path d="" fill="#61919C" transform="translate(0,0)"/>
<path d="" fill="#61939C" transform="translate(0,0)"/>
<path d="" fill="#61949D" transform="translate(0,0)"/>
<path d="" fill="#63939C" transform="translate(0,0)"/>
<path d="" fill="#61929E" transform="translate(0,0)"/>
<path d="" fill="#61919E" transform="translate(0,0)"/>
<path d="" fill="#609099" transform="translate(0,0)"/>
<path d="" fill="#63929D" transform="translate(0,0)"/>
<path d="" fill="#62939E" transform="translate(0,0)"/>
<path d="" fill="#6495A0" transform="translate(0,0)"/>
</svg>
